<svg xmlns="http://www.w3.org/2000/svg" width="720" height="320" viewBox="0 0 720 320">
<rect width="720" height="320" fill="#ffffff"/>
<text x="40" y="24" font-family="Helvetica" font-size="18" font-weight="700">Coupling Angle Over Window</text>
<text x="40" y="44" font-family="Helvetica" font-size="12" fill="#666">T-V coupling (solid) crossing -τ triggers Goodhart warning</text>
<line x1="40" y1="280" x2="600" y2="280" stroke="#333" stroke-width="1"/>
<line x1="40" y1="40" x2="40" y2="280" stroke="#333" stroke-width="1"/>
<line x1="40" y1="174.1" x2="600" y2="174.1" stroke="#dc2626" stroke-dasharray="6,4" stroke-width="2"/>
<text x="606" y="178.1" font-family="Helvetica" font-size="11" fill="#dc2626">-τ = -0.4</text>
<line x1="40" y1="117.6" x2="600" y2="117.6" stroke="#999" stroke-dasharray="3,3" stroke-width="1"/>
<polyline fill="none" stroke="#1d4ed8" stroke-width="3" points="40.0,258.8 102.2,117.6 164.4,117.6 226.7,117.6 288.9,117.6 351.1,117.6 413.3,117.6 475.6,117.6 537.8,117.6 600.0,117.6"/>
<polyline fill="none" stroke="#059669" stroke-width="2" stroke-dasharray="4,3" points="40.0,258.8 102.2,117.6 164.4,117.6 226.7,117.6 288.9,117.6 351.1,117.6 413.3,117.6 475.6,117.6 537.8,117.6 600.0,117.6"/>
<circle cx="40.0" cy="258.8" r="6" fill="#dc2626" stroke="#fff" stroke-width="2"/>
<text x="48.0" y="262.8" font-family="Helvetica" font-size="11" fill="#dc2626">W5</text>
<text x="34.0" y="296" font-family="Helvetica" font-size="11" fill="#333">5</text>
<text x="96.2" y="296" font-family="Helvetica" font-size="11" fill="#333">6</text>
<text x="158.4" y="296" font-family="Helvetica" font-size="11" fill="#333">7</text>
<text x="220.7" y="296" font-family="Helvetica" font-size="11" fill="#333">8</text>
<text x="282.9" y="296" font-family="Helvetica" font-size="11" fill="#333">9</text>
<text x="345.1" y="296" font-family="Helvetica" font-size="11" fill="#333">10</text>
<text x="407.3" y="296" font-family="Helvetica" font-size="11" fill="#333">11</text>
<text x="469.6" y="296" font-family="Helvetica" font-size="11" fill="#333">12</text>
<text x="531.8" y="296" font-family="Helvetica" font-size="11" fill="#333">13</text>
<text x="594.0" y="296" font-family="Helvetica" font-size="11" fill="#333">14</text>
<rect x="600" y="40" width="112" height="90" rx="6" fill="#f8fafc" stroke="#e5e7eb"/>
<text x="612" y="60" font-family="Helvetica" font-size="12" font-weight="700">Legend</text>
<line x1="612" y1="74" x2="636" y2="74" stroke="#1d4ed8" stroke-width="3"/>
<text x="642" y="78" font-family="Helvetica" font-size="11">T-V coupling</text>
<line x1="612" y1="96" x2="636" y2="96" stroke="#059669" stroke-width="2" stroke-dasharray="4,3"/>
<text x="642" y="100" font-family="Helvetica" font-size="11">T-R coupling</text>
<circle cx="624" cy="120" r="6" fill="#dc2626" stroke="#fff" stroke-width="2"/>
<text x="642" y="124" font-family="Helvetica" font-size="11">Warning ⚠</text>
</svg>