<svg xmlns="http://www.w3.org/2000/svg" width="720" height="320" viewBox="0 0 720 320">
<rect width="720" height="320" fill="#ffffff"/>
<text x="60" y="24" font-family="Helvetica" font-size="18" font-weight="700">Coupling Angle Over Window</text>
<text x="60" y="44" font-family="Helvetica" font-size="12" fill="#666">T-V coupling (solid) crossing threshold triggers Goodhart warning</text>
<line x1="60" y1="260" x2="560" y2="260" stroke="#333" stroke-width="1"/>
<line x1="60" y1="60" x2="60" y2="260" stroke="#333" stroke-width="1"/>
<line x1="60" y1="236.9" x2="560" y2="236.9" stroke="#dc2626" stroke-dasharray="6,4" stroke-width="2"/>
<text x="566" y="240.9" font-family="Helvetica" font-size="11" fill="#dc2626">T-V threshold = -1.0000</text>
<line x1="60" y1="83.1" x2="560" y2="83.1" stroke="#999" stroke-dasharray="3,3" stroke-width="1"/>
<polyline fill="none" stroke="#1d4ed8" stroke-width="3" points="60.0,236.9 160.0,83.1 260.0,83.1 360.0,83.1 460.0,83.1 560.0,83.1"/>
<polyline fill="none" stroke="#059669" stroke-width="2" stroke-dasharray="4,3" points="60.0,236.9 160.0,83.1 260.0,83.1 360.0,83.1 460.0,83.1 560.0,83.1"/>
<circle cx="60.0" cy="236.9" r="6" fill="#dc2626" stroke="#fff" stroke-width="2"/>
<text x="68.0" y="240.9" font-family="Helvetica" font-size="11" fill="#dc2626">W4</text>
<text x="54.0" y="276" font-family="Helvetica" font-size="11" fill="#333">4</text>
<text x="154.0" y="276" font-family="Helvetica" font-size="11" fill="#333">5</text>
<text x="254.0" y="276" font-family="Helvetica" font-size="11" fill="#333">6</text>
<text x="354.0" y="276" font-family="Helvetica" font-size="11" fill="#333">7</text>
<text x="454.0" y="276" font-family="Helvetica" font-size="11" fill="#333">8</text>
<text x="554.0" y="276" font-family="Helvetica" font-size="11" fill="#333">9</text>
<rect x="560" y="60" width="152" height="90" rx="6" fill="#f8fafc" stroke="#e5e7eb"/>
<text x="572" y="80" font-family="Helvetica" font-size="12" font-weight="700">Legend</text>
<line x1="572" y1="94" x2="596" y2="94" stroke="#1d4ed8" stroke-width="3"/>
<text x="602" y="98" font-family="Helvetica" font-size="11">T-V coupling</text>
<line x1="572" y1="116" x2="596" y2="116" stroke="#059669" stroke-width="2" stroke-dasharray="4,3"/>
<text x="602" y="120" font-family="Helvetica" font-size="11">T-R coupling</text>
<circle cx="584" cy="140" r="6" fill="#dc2626" stroke="#fff" stroke-width="2"/>
<text x="602" y="144" font-family="Helvetica" font-size="11">Warning</text>
</svg>